  0
SECTION
  2
HEADER
  9
$ACADVER
  1
AC1006
  9
$EXTMIN
 10
0.000000
 20
0.000000
 30
0.000000
  9
$EXTMAX
 10
1860.000000
 20
2631.000000
 30
0.000000
  0
ENDSEC
  0
SECTION
  2
ENTITIES
  0
POLYLINE
  8
0
 66
1
 70
1
  0
VERTEX
  8
0
 10
179.588894
 20
2449.923275
 42
0.000000
  0
VERTEX
  8
0
 10
177.000000
 20
2446.846549
 42
0.000000
  0
VERTEX
  8
0
 10
177.000000
 20
2335.857533
 42
0.000407
  0
VERTEX
  8
0
 10
177.062339
 20
2259.344490
 42
0.007982
  0
VERTEX
  8
0
 10
177.477163
 20
2235.768009
 42
0.021368
  0
VERTEX
  8
0
 10
178.399792
 20
2223.697211
 42
0.201929
  0
VERTEX
  8
0
 10
180.913343
 20
2219.281803
 42
0.162397
  0
VERTEX
  8
0
 10
182.912070
 20
2218.590934
 42
0.000470
  0
VERTEX
  8
0
 10
211.139611
 20
2218.312148
 42
0.001802
  0
VERTEX
  8
0
 10
250.904930
 20
2218.100158
 42
0.000374
  0
VERTEX
  8
0
 10
320.795455
 20
2218.031803
 42
0.000000
  0
VERTEX
  8
0
 10
459.090909
 20
2218.000000
 42
0.000000
  0
VERTEX
  8
0
 10
461.545455
 20
2220.454545
 42
0.000000
  0
VERTEX
  8
0
 10
464.000000
 20
2222.909091
 42
0.000000
  0
VERTEX
  8
0
 10
464.000000
 20
2335.500000
 42
0.000000
  0
VERTEX
  8
0
 10
464.000000
 20
2448.090909
 42
0.000000
  0
VERTEX
  8
0
 10
461.545455
 20
2450.545455
 42
0.000000
  0
VERTEX
  8
0
 10
459.090909
 20
2453.000000
 42
0.000000
  0
VERTEX
  8
0
 10
320.634348
 20
2453.000000
 42
0.000000
  0
VERTEX
  8
0
 10
182.177787
 20
2453.000000
 42
0.000000
  0
SEQEND
  0
POLYLINE
  8
0
 66
1
 70
1
  0
VERTEX
  8
0
 10
536.454545
 20
2450.545455
 42
0.000000
  0
VERTEX
  8
0
 10
534.000000
 20
2448.090909
 42
0.000000
  0
VERTEX
  8
0
 10
534.000000
 20
2343.601218
 42
0.000000
  0
VERTEX
  8
0
 10
534.000000
 20
2239.111527
 42
0.000000
  0
VERTEX
  8
0
 10
536.413308
 20
2236.305764
 42
0.000000
  0
VERTEX
  8
0
 10
538.826617
 20
2233.500000
 42
0.000000
  0
VERTEX
  8
0
 10
664.884777
 20
2233.238604
 42
0.000000
  0
VERTEX
  8
0
 10
790.942938
 20
2232.977208
 42
0.000000
  0
VERTEX
  8
0
 10
794.221469
 20
2235.906575
 42
0.000000
  0
VERTEX
  8
0
 10
797.500000
 20
2238.835942
 42
0.000000
  0
VERTEX
  8
0
 10
797.500000
 20
2343.504555
 42
0.000000
  0
VERTEX
  8
0
 10
797.500000
 20
2448.173167
 42
0.000000
  0
VERTEX
  8
0
 10
794.694236
 20
2450.586584
 42
0.000000
  0
VERTEX
  8
0
 10
791.888473
 20
2453.000000
 42
0.000000
  0
VERTEX
  8
0
 10
665.398782
 20
2453.000000
 42
0.000000
  0
VERTEX
  8
0
 10
538.909091
 20
2453.000000
 42
0.000000
  0
SEQEND
  0
POLYLINE
  8
0
 66
1
 70
1
  0
VERTEX
  8
0
 10
871.360323
 20
2451.539827
 42
0.126364
  0
VERTEX
  8
0
 10
868.929209
 20
2448.702165
 42
0.079674
  0
VERTEX
  8
0
 10
867.641286
 20
2444.508697
 42
0.033742
  0
VERTEX
  8
0
 10
867.122444
 20
2437.265469
 42
0.004385
  0
VERTEX
  8
0
 10
867.195623
 20
2421.764347
 42
0.004311
  0
VERTEX
  8
0
 10
867.564194
 20
2405.100003
 42
0.060084
  0
VERTEX
  8
0
 10
868.465118
 20
2399.169421
 42
0.170018
  0
VERTEX
  8
0
 10
870.618786
 20
2396.072171
 42
0.089093
  0
VERTEX
  8
0
 10
874.899909
 20
2394.011189
 42
0.067181
  0
VERTEX
  8
0
 10
880.725065
 20
2393.209370
 42
0.000147
  0
VERTEX
  8
0
 10
969.840412
 20
2393.001552
 42
0.000197
  0
VERTEX
  8
0
 10
1058.078999
 20
2392.856521
 42
0.049702
  0
VERTEX
  8
0
 10
1065.860795
 20
2393.622159
 42
0.049552
  0
VERTEX
  8
0
 10
1067.234470
 20
2394.041701
 42
0.028308
  0
VERTEX
  8
0
 10
1068.796342
 20
2394.800107
 42
0.028029
  0
VERTEX
  8
0
 10
1070.296026
 20
2395.750148
 42
0.041191
  0
VERTEX
  8
0
 10
1071.485795
 20
2396.758523
 42
0.000000
  0
VERTEX
  8
0
 10
1074.000000
 20
2399.272727
 42
0.000000
  0
VERTEX
  8
0
 10
1074.000000
 20
2423.547470
 42
0.000000
  0
VERTEX
  8
0
 10
1074.000000
 20
2447.822213
 42
0.000000
  0
VERTEX
  8
0
 10
1070.923275
 20
2450.411106
 42
0.000000
  0
VERTEX
  8
0
 10
1067.846549
 20
2453.000000
 42
0.000000
  0
VERTEX
  8
0
 10
970.645781
 20
2453.000000
 42
0.000432
  0
VERTEX
  8
0
 10
916.132036
 20
2452.952933
 42
0.003245
  0
VERTEX
  8
0
 10
890.323990
 20
2452.740883
 42
0.002348
  0
VERTEX
  8
0
 10
874.053970
 20
2452.425171
 42
0.147791
  0
SEQEND
  0
POLYLINE
  8
0
 66
1
 70
1
  0
VERTEX
  8
0
 10
1138.025436
 20
2451.025436
 42
0.036443
  0
VERTEX
  8
0
 10
1137.228602
 20
2450.103132
 42
0.025664
  0
VERTEX
  8
0
 10
1136.467564
 20
2448.962491
 42
0.026019
  0
VERTEX
  8
0
 10
1135.849372
 20
2447.789504
 42
0.048372
  0
VERTEX
  8
0
 10
1135.494832
 20
2446.775436
 42
0.059053
  0
VERTEX
  8
0
 10
1135.270730
 20
2444.943105
 42
0.000159
  0
VERTEX
  8
0
 10
1135.184556
 20
2419.693684
 42
0.000975
  0
VERTEX
  8
0
 10
1135.151909
 20
2391.187279
 42
0.000608
  0
VERTEX
  8
0
 10
1135.219396
 20
2357.777530
 42
0.000000
  0
VERTEX
  8
0
 10
1135.500000
 20
2271.055060
 42
0.000000
  0
VERTEX
  8
0
 10
1137.777778
 20
2268.777530
 42
0.000000
  0
VERTEX
  8
0
 10
1140.055556
 20
2266.500000
 42
0.000000
  0
VERTEX
  8
0
 10
1242.114361
 20
2266.500000
 42
0.000000
  0
VERTEX
  8
0
 10
1344.173167
 20
2266.500000
 42
0.000000
  0
VERTEX
  8
0
 10
1346.602492
 20
2269.324258
 42
0.000000
  0
VERTEX
  8
0
 10
1349.031816
 20
2272.148516
 42
0.000000
  0
VERTEX
  8
0
 10
1348.765908
 20
2360.662808
 42
0.000000
  0
VERTEX
  8
0
 10
1348.500000
 20
2449.177100
 42
0.000000
  0
VERTEX
  8
0
 10
1346.139216
 20
2451.088550
 42
0.160164
  0
VERTEX
  8
0
 10
1342.852129
 20
2452.337009
 42
0.006754
  0
VERTEX
  8
0
 10
1330.215210
 20
2452.739517
 42
0.004296
  0
VERTEX
  8
0
 10
1307.344607
 20
2452.962332
 42
0.000288
  0
VERTEX
  8
0
 10
1241.889216
 20
2453.000000
 42
0.000272
  0
VERTEX
  8
0
 10
1175.374414
 20
2452.963754
 42
0.004480
  0
VERTEX
  8
0
 10
1153.140528
 20
2452.740310
 42
0.007214
  0
VERTEX
  8
0
 10
1140.981496
 20
2452.333605
 42
0.186502
  0
SEQEND
  0
POLYLINE
  8
0
 66
1
 70
1
  0
VERTEX
  8
0
 10
868.571429
 20
2333.428571
 42
0.126725
  0
VERTEX
  8
0
 10
867.777661
 20
2332.083997
 42
0.041016
  0
VERTEX
  8
0
 10
867.316735
 20
2329.800808
 42
0.023884
  0
VERTEX
  8
0
 10
867.066376
 20
2326.201993
 42
0.005424
  0
VERTEX
  8
0
 10
867.000000
 20
2320.083559
 42
0.004729
  0
VERTEX
  8
0
 10
867.062384
 20
2313.487263
 42
0.029117
  0
VERTEX
  8
0
 10
867.323973
 20
2310.102551
 42
0.060494
  0
VERTEX
  8
0
 10
867.861560
 20
2308.050275
 42
0.115054
  0
VERTEX
  8
0
 10
868.828741
 20
2306.654988
 42
0.165103
  0
VERTEX
  8
0
 10
871.110696
 20
2305.667763
 42
0.011899
  0
VERTEX
  8
0
 10
878.079855
 20
2305.268291
 42
0.007552
  0
VERTEX
  8
0
 10
890.206772
 20
2305.045656
 42
0.000813
  0
VERTEX
  8
0
 10
918.272037
 20
2305.000000
 42
0.000000
  0
VERTEX
  8
0
 10
965.886592
 20
2305.000000
 42
0.000000
  0
VERTEX
  8
0
 10
967.443296
 20
2307.222506
 42
0.088229
  0
VERTEX
  8
0
 10
968.193891
 20
2308.837734
 42
0.034457
  0
VERTEX
  8
0
 10
968.660488
 20
2311.262301
 42
0.023043
  0
VERTEX
  8
0
 10
968.923799
 20
2314.759224
 42
0.007270
  0
VERTEX
  8
0
 10
969.000000
 20
2320.000000
 42
0.007270
  0
VERTEX
  8
0
 10
968.923799
 20
2325.240776
 42
0.023043
  0
VERTEX
  8
0
 10
968.660488
 20
2328.737699
 42
0.034457
  0
VERTEX
  8
0
 10
968.193891
 20
2331.162266
 42
0.088229
  0
VERTEX
  8
0
 10
967.443296
 20
2332.777494
 42
0.000000
  0
VERTEX
  8
0
 10
965.886592
 20
2335.000000
 42
0.000000
  0
VERTEX
  8
0
 10
918.014725
 20
2335.000000
 42
0.000852
  0
VERTEX
  8
0
 10
890.470376
 20
2334.953086
 42
0.007091
  0
VERTEX
  8
0
 10
877.992423
 20
2334.733587
 42
0.009356
  0
VERTEX
  8
0
 10
870.619260
 20
2334.361055
 42
0.180990
  0
SEQEND
  0
POLYLINE
  8
0
 66
1
 70
1
  0
VERTEX
  8
0
 10
994.442664
 20
2333.711180
 42
0.085190
  0
VERTEX
  8
0
 10
994.250812
 20
2332.747120
 42
0.002839
  0
VERTEX
  8
0
 10
994.169443
 20
2328.833717
 42
0.005318
  0
VERTEX
  8
0
 10
994.148703
 20
2324.197979
 42
0.003671
  0
VERTEX
  8
0
 10
994.219585
 20
2318.949549
 42
0.000000
  0
VERTEX
  8
0
 10
994.500000
 20
2305.500000
 42
0.000000
  0
VERTEX
  8
0
 10
1034.000000
 20
2305.500000
 42
0.000000
  0
VERTEX
  8
0
 10
1073.500000
 20
2305.500000
 42
0.000000
  0
VERTEX
  8
0
 10
1073.500000
 20
2320.000000
 42
0.000000
  0
VERTEX
  8
0
 10
1073.500000
 20
2334.500000
 42
0.000000
  0
VERTEX
  8
0
 10
1034.223079
 20
2334.761632
 42
0.001238
  0
VERTEX
  8
0
 10
1013.591472
 20
2334.847969
 42
0.007027
  0
VERTEX
  8
0
 10
1002.606626
 20
2334.712344
 42
0.005211
  0
VERTEX
  8
0
 10
995.463840
 20
2334.449212
 42
0.297635
  0
SEQEND
  0
POLYLINE
  8
0
 66
1
 70
1
  0
VERTEX
  8
0
 10
983.200000
 20
2262.800000
 42
0.165955
  0
VERTEX
  8
0
 10
982.632803
 20
2261.644998
 42
0.013522
  0
VERTEX
  8
0
 10
982.289735
 20
2258.243902
 42
0.013586
  0
VERTEX
  8
0
 10
982.066269
 20
2253.422547
 42
0.004786
  0
VERTEX
  8
0
 10
982.000000
 20
2246.500000
 42
0.004786
  0
VERTEX
  8
0
 10
982.066269
 20
2239.577453
 42
0.013586
  0
VERTEX
  8
0
 10
982.289735
 20
2234.756098
 42
0.013522
  0
VERTEX
  8
0
 10
982.632803
 20
2231.355002
 42
0.165955
  0
VERTEX
  8
0
 10
983.200000
 20
2230.200000
 42
0.188762
  0
VERTEX
  8
0
 10
984.657713
 20
2229.562504
 42
0.003088
  0
VERTEX
  8
0
 10
993.719572
 20
2229.263761
 42
0.005378
  0
VERTEX
  8
0
 10
1006.673285
 20
2229.056177
 42
0.001317
  0
VERTEX
  8
0
 10
1028.000000
 20
2229.000000
 42
0.001317
  0
VERTEX
  8
0
 10
1049.326715
 20
2229.056177
 42
0.005378
  0
VERTEX
  8
0
 10
1062.280428
 20
2229.263761
 42
0.003088
  0
VERTEX
  8
0
 10
1071.342287
 20
2229.562504
 42
0.188762
  0
VERTEX
  8
0
 10
1072.800000
 20
2230.200000
 42
0.165955
  0
VERTEX
  8
0
 10
1073.367197
 20
2231.355002
 42
0.013522
  0
VERTEX
  8
0
 10
1073.710265
 20
2234.756098
 42
0.013586
  0
VERTEX
  8
0
 10
1073.933731
 20
2239.577453
 42
0.004786
  0
VERTEX
  8
0
 10
1074.000000
 20
2246.500000
 42
0.004786
  0
VERTEX
  8
0
 10
1073.933731
 20
2253.422547
 42
0.013586
  0
VERTEX
  8
0
 10
1073.710265
 20
2258.243902
 42
0.013522
  0
VERTEX
  8
0
 10
1073.367197
 20
2261.644998
 42
0.165955
  0
VERTEX
  8
0
 10
1072.800000
 20
2262.800000
 42
0.188762
  0
VERTEX
  8
0
 10
1071.342287
 20
2263.437496
 42
0.003088
  0
VERTEX
  8
0
 10
1062.280428
 20
2263.736239
 42
0.005378
  0
VERTEX
  8
0
 10
1049.326715
 20
2263.943823
 42
0.001317
  0
VERTEX
  8
0
 10
1028.000000
 20
2264.000000
 42
0.001317
  0
VERTEX
  8
0
 10
1006.673285
 20
2263.943823
 42
0.005378
  0
VERTEX
  8
0
 10
993.719572
 20
2263.736239
 42
0.003088
  0
VERTEX
  8
0
 10
984.657713
 20
2263.437496
 42
0.188762
  0
SEQEND
  0
POLYLINE
  8
0
 66
1
 70
1
  0
VERTEX
  8
0
 10
868.571429
 20
2258.428571
 42
0.186244
  0
VERTEX
  8
0
 10
867.107936
 20
2255.125968
 42
0.012215
  0
VERTEX
  8
0
 10
866.848294
 20
2244.500000
 42
0.012215
  0
VERTEX
  8
0
 10
867.107936
 20
2233.874032
 42
0.186244
  0
VERTEX
  8
0
 10
868.571429
 20
2230.571429
 42
0.174052
  0
VERTEX
  8
0
 10
870.494977
 20
2229.664102
 42
0.013774
  0
VERTEX
  8
0
 10
876.214647
 20
2229.271392
 42
0.009086
  0
VERTEX
  8
0
 10
885.961443
 20
2229.048777
 42
0.001166
  0
VERTEX
  8
0
 10
906.871429
 20
2229.000000
 42
0.001602
  0
VERTEX
  8
0
 10
924.718423
 20
2229.057185
 42
0.006305
  0
VERTEX
  8
0
 10
935.714550
 20
2229.266336
 42
0.004087
  0
VERTEX
  8
0
 10
943.380222
 20
2229.571601
 42
0.186473
  0
VERTEX
  8
0
 10
944.800000
 20
2230.200000
 42
0.161284
  0
VERTEX
  8
0
 10
945.355173
 20
2231.304989
 42
0.015514
  0
VERTEX
  8
0
 10
945.704198
 20
2234.333365
 42
0.015139
  0
VERTEX
  8
0
 10
945.931424
 20
2238.580885
 42
0.005793
  0
VERTEX
  8
0
 10
946.000000
 20
2244.500000
 42
0.005793
  0
VERTEX
  8
0
 10
945.931424
 20
2250.419115
 42
0.015139
  0
VERTEX
  8
0
 10
945.704198
 20
2254.666635
 42
0.015514
  0
VERTEX
  8
0
 10
945.355173
 20
2257.695011
 42
0.161284
  0
VERTEX
  8
0
 10
944.800000
 20
2258.800000
 42
0.186473
  0
VERTEX
  8
0
 10
943.380222
 20
2259.428399
 42
0.004087
  0
VERTEX
  8
0
 10
935.714550
 20
2259.733664
 42
0.006305
  0
VERTEX
  8
0
 10
924.718423
 20
2259.942815
 42
0.001602
  0
VERTEX
  8
0
 10
906.871429
 20
2260.000000
 42
0.001166
  0
VERTEX
  8
0
 10
885.961443
 20
2259.951223
 42
0.009086
  0
VERTEX
  8
0
 10
876.214647
 20
2259.728608
 42
0.013774
  0
VERTEX
  8
0
 10
870.494977
 20
2259.335898
 42
0.174052
  0
SEQEND
  0
POLYLINE
  8
0
 66
1
 70
1
  0
VERTEX
  8
0
 10
1136.654988
 20
2227.171259
 42
0.159599
  0
VERTEX
  8
0
 10
1135.687671
 20
2224.999548
 42
0.015559
  0
VERTEX
  8
0
 10
1135.272197
 20
2219.189962
 42
0.009044
  0
VERTEX
  8
0
 10
1135.047098
 20
2209.048580
 42
0.001026
  0
VERTEX
  8
0
 10
1135.000000
 20
2186.105518
 42
0.001868
  0
VERTEX
  8
0
 10
1135.063247
 20
2169.172598
 42
0.004417
  0
VERTEX
  8
0
 10
1135.268920
 20
2156.559019
 42
0.002089
  0
VERTEX
  8
0
 10
1135.557678
 20
2146.711744
 42
0.114979
  0
VERTEX
  8
0
 10
1136.035184
 20
2144.934259
 42
0.242869
  0
VERTEX
  8
0
 10
1137.786312
 20
2143.728811
 42
0.021415
  0
VERTEX
  8
0
 10
1143.312770
 20
2143.265989
 42
0.009530
  0
VERTEX
  8
0
 10
1153.795961
 20
2143.038782
 42
0.000653
  0
VERTEX
  8
0
 10
1183.500000
 20
2143.000000
 42
0.000653
  0
VERTEX
  8
0
 10
1213.204039
 20
2143.038782
 42
0.009530
  0
VERTEX
  8
0
 10
1223.687230
 20
2143.265989
 42
0.021415
  0
VERTEX
  8
0
 10
1229.213688
 20
2143.728811
 42
0.242869
  0
VERTEX
  8
0
 10
1230.964816
 20
2144.934259
 42
0.115039
  0
VERTEX
  8
0
 10
1231.442625
 20
2146.713717
 42
0.002068
  0
VERTEX
  8
0
 10
1231.731203
 20
2156.621391
 42
0.004392
  0
VERTEX
  8
0
 10
1231.936799
 20
2169.313071
 42
0.001853
  0
VERTEX
  8
0
 10
1232.000000
 20
2186.362830
 42
0.001069
  0
VERTEX
  8
0
 10
1231.951786
 20
2208.918946
 42
0.008493
  0
VERTEX
  8
0
 10
1231.730106
 20
2219.343851
 42
0.012439
  0
VERTEX
  8
0
 10
1231.342905
 20
2225.469654
 42
0.176138
  0
VERTEX
  8
0
 10
1230.428571
 20
2227.428571
 42
0.179681
  0
VERTEX
  8
0
 10
1228.405750
 20
2228.355865
 42
0.010183
  0
VERTEX
  8
0
 10
1221.421882
 20
2228.732645
 42
0.007474
  0
VERTEX
  8
0
 10
1209.580552
 20
2228.952735
 42
0.000909
  0
VERTEX
  8
0
 10
1183.583559
 20
2229.000000
 42
0.000751
  0
VERTEX
  8
0
 10
1155.557029
 20
2228.957881
 42
0.008986
  0
VERTEX
  8
0
 10
1144.731741
 20
2228.730763
 42
0.018320
  0
VERTEX
  8
0
 10
1138.824316
 20
2228.283396
 42
0.182747
  0
SEQEND
  0
POLYLINE
  8
0
 66
1
 70
1
  0
VERTEX
  8
0
 10
182.242386
 20
2161.508144
 42
0.048230
  0
VERTEX
  8
0
 10
180.914570
 20
2160.770751
 42
0.038841
  0
VERTEX
  8
0
 10
179.645448
 20
2159.742435
 42
0.040132
  0
VERTEX
  8
0
 10
178.609170
 20
2158.589049
 42
0.072231
  0
VERTEX
  8
0
 10
177.992386
 20
2157.479973
 42
0.084427
  0
VERTEX
  8
0
 10
177.554814
 20
2155.262965
 42
0.001501
  0
VERTEX
  8
0
 10
177.269574
 20
2143.080069
 42
0.003412
  0
VERTEX
  8
0
 10
177.064699
 20
2127.998689
 42
0.001690
  0
VERTEX
  8
0
 10
177.000000
 20
2108.857977
 42
0.000000
  0
VERTEX
  8
0
 10
177.000000
 20
2062.846154
 42
0.000000
  0
VERTEX
  8
0
 10
179.923077
 20
2059.923077
 42
0.000000
  0
VERTEX
  8
0
 10
182.846154
 20
2057.000000
 42
0.000000
  0
VERTEX
  8
0
 10
543.968531
 20
2057.000000
 42
0.000000
  0
VERTEX
  8
0
 10
905.090909
 20
2057.000000
 42
0.000000
  0
VERTEX
  8
0
 10
907.545455
 20
2059.454545
 42
0.000000
  0
VERTEX
  8
0
 10
910.000000
 20
2061.909091
 42
0.000000
  0
VERTEX
  8
0
 10
910.000000
 20
2109.780231
 42
0.000000
  0
VERTEX
  8
0
 10
910.000000
 20
2157.651372
 42
0.000000
  0
VERTEX
  8
0
 10
907.419454
 20
2160.075686
 42
0.000000
  0
VERTEX
  8
0
 10
904.838907
 20
2162.500000
 42
0.000000
  0
VERTEX
  8
0
 10
545.169454
 20
2162.713072
 42
0.000114
  0
VERTEX
  8
0
 10
343.926914
 20
2162.786445
 42
0.000864
  0
VERTEX
  8
0
 10
249.030253
 20
2162.635406
 42
0.000246
  0
VERTEX
  8
0
 10
186.465512
 20
2162.396922
 42
0.101913
  0
SEQEND
  0
POLYLINE
  8
0
 66
1
 70
1
  0
VERTEX
  8
0
 10
981.693213
 20
2162.299738
 42
0.093820
  0
VERTEX
  8
0
 10
980.932536
 20
2161.940995
 42
0.048174
  0
VERTEX
  8
0
 10
980.140102
 20
2161.240284
 42
0.045544
  0
VERTEX
  8
0
 10
979.437835
 20
2160.334401
 42
0.051322
  0
VERTEX
  8
0
 10
978.943213
 20
2159.350640
 42
0.089085
  0
VERTEX
  8
0
 10
978.518820
 20
2157.090609
 42
0.000196
  0
VERTEX
  8
0
 10
978.256599
 20
2122.256713
 42
0.001213
  0
VERTEX
  8
0
 10
978.061208
 20
2080.766101
 42
0.000571
  0
VERTEX
  8
0
 10
978.000000
 20
2027.157407
 42
0.000290
  0
VERTEX
  8
0
 10
978.043969
 20
1951.434876
 42
0.002659
  0
VERTEX
  8
0
 10
978.257284
 20
1918.515869
 42
0.001899
  0
VERTEX
  8
0
 10
978.573563
 20
1898.237593
 42
0.148993
  0
VERTEX
  8
0
 10
979.556704
 20
1895.222506
 42
0.000000
  0
VERTEX
  8
0
 10
981.113408
 20
1893.000000
 42
0.000000
  0
VERTEX
  8
0
 10
1026.356704
 20
1893.000000
 42
0.001263
  0
VERTEX
  8
0
 10
1048.515816
 20
1893.055981
 42
0.005195
  0
VERTEX
  8
0
 10
1061.937575
 20
1893.263262
 42
0.002902
  0
VERTEX
  8
0
 10
1071.334699
 20
1893.560659
 42
0.189199
  0
VERTEX
  8
0
 10
1072.800000
 20
1894.200000
 42
0.196145
  0
VERTEX
  8
0
 10
1073.476422
 20
1895.808734
 42
0.000415
  0
VERTEX
  8
0
 10
1073.745463
 20
1923.196150
 42
0.001851
  0
VERTEX
  8
0
 10
1073.947436
 20
1961.380055
 42
0.000397
  0
VERTEX
  8
0
 10
1074.000000
 20
2027.643296
 42
0.000000
  0
VERTEX
  8
0
 10
1074.000000
 20
2159.886592
 42
0.000000
  0
VERTEX
  8
0
 10
1071.777494
 20
2161.443296
 42
0.134102
  0
VERTEX
  8
0
 10
1069.290081
 20
2162.335519
 42
0.011490
  0
VERTEX
  8
0
 10
1062.471238
 20
2162.709618
 42
0.007624
  0
VERTEX
  8
0
 10
1050.948788
 20
2162.900670
 42
0.001007
  0
VERTEX
  8
0
 10
1026.527494
 20
2162.883999
 42
0.001007
  0
VERTEX
  8
0
 10
1009.904328
 20
2162.805718
 42
0.001577
  0
VERTEX
  8
0
 10
995.608583
 20
2162.664522
 42
0.000400
  0
VERTEX
  8
0
 10
983.116153
 20
2162.491721
 42
0.059810
  0
SEQEND
  0
POLYLINE
  8
0
 66
1
 70
1
  0
VERTEX
  8
0
 10
180.913343
 20
1996.718197
 42
0.157695
  0
VERTEX
  8
0
 10
178.619530
 20
1993.388260
 42
0.053577
  0
VERTEX
  8
0
 10
177.534773
 20
1987.537841
 42
0.017782
  0
VERTEX
  8
0
 10
177.079634
 20
1976.367215
 42
0.001291
  0
VERTEX
  8
0
 10
177.000000
 20
1945.516082
 42
0.001519
  0
VERTEX
  8
0
 10
177.096332
 20
1913.812961
 42
0.020322
  0
VERTEX
  8
0
 10
177.640055
 20
1902.182442
 42
0.063192
  0
VERTEX
  8
0
 10
178.909940
 20
1896.327138
 42
0.219581
  0
VERTEX
  8
0
 10
181.544802
 20
1893.621181
 42
0.091419
  0
VERTEX
  8
0
 10
182.918427
 20
1893.365435
 42
0.000008
  0
VERTEX
  8
0
 10
288.833340
 20
1893.182472
 42
0.000267
  0
VERTEX
  8
0
 10
405.840514
 20
1893.044663
 42
0.000161
  0
VERTEX
  8
0
 10
544.509207
 20
1893.000000
 42
0.000000
  0
VERTEX
  8
0
 10
905.854840
 20
1893.000000
 42
0.000000
  0
VERTEX
  8
0
 10
907.927420
 20
1895.634859
 42
0.130338
  0
VERTEX
  8
0
 10
909.188352
 20
1898.557555
 42
0.026681
  0
VERTEX
  8
0
 10
909.725177
 20
1904.206950
 42
0.009705
  0
VERTEX
  8
0
 10
909.960404
 20
1914.906178
 42
0.000643
  0
VERTEX
  8
0
 10
910.000000
 20
1945.680313
 42
0.000000
  0
VERTEX
  8
0
 10
910.000000
 20
1993.090909
 42
0.000000
  0
VERTEX
  8
0
 10
907.545455
 20
1995.545455
 42
0.000000
  0
VERTEX
  8
0
 10
905.090909
 20
1998.000000
 42
0.000000
  0
VERTEX
  8
0
 10
543.795455
 20
1997.968197
 42
0.000139
  0
VERTEX
  8
0
 10
359.667432
 20
1997.900964
 42
0.000701
  0
VERTEX
  8
0
 10
256.908055
 20
1997.690980
 42
0.000074
  0
VERTEX
  8
0
 10
182.983031
 20
1997.425407
 42
0.164213
  0
SEQEND
  0
POLYLINE
  8
0
 66
1
 70
1
  0
VERTEX
  8
0
 10
179.923077
 20
1776.076923
 42
0.000000
  0
VERTEX
  8
0
 10
177.000000
 20
1773.153846
 42
0.000000
  0
VERTEX
  8
0
 10
177.000000
 20
1662.142023
 42
0.000662
  0
VERTEX
  8
0
 10
177.061287
 20
1615.843138
 42
0.001446
  0
VERTEX
  8
0
 10
177.257824
 20
1580.358390
 42
0.000284
  0
VERTEX
  8
0
 10
177.522768
 20
1550.915175
 42
0.088670
  0
VERTEX
  8
0
 10
177.957039
 20
1548.612996
 42
0.261759
  0
VERTEX
  8
0
 10
182.359456
 20
1544.939040
 42
0.036552
  0
VERTEX
  8
0
 10
194.599847
 20
1543.582879
 42
0.009475
  0
VERTEX
  8
0
 10
220.346214
 20
1543.111052
 42
0.000319
  0
VERTEX
  8
0
 10
322.057380
 20
1543.239469
 42
0.000000
  0
VERTEX
  8
0
 10
459.173352
 20
1543.500000
 42
0.000000
  0
VERTEX
  8
0
 10
461.586676
 20
1546.305764
 42
0.000000
  0
VERTEX
  8
0
 10
464.000000
 20
1549.111527
 42
0.000000
  0
VERTEX
  8
0
 10
464.000000
 20
1661.466870
 42
0.000000
  0
VERTEX
  8
0
 10
464.000000
 20
1773.822213
 42
0.000000
  0
VERTEX
  8
0
 10
460.923275
 20
1776.411106
 42
0.000000
  0
VERTEX
  8
0
 10
457.846549
 20
1779.000000
 42
0.000000
  0
VERTEX
  8
0
 10
320.346352
 20
1779.000000
 42
0.000000
  0
VERTEX
  8
0
 10
182.846154
 20
1779.000000
 42
0.000000
  0
SEQEND
  0
POLYLINE
  8
0
 66
1
 70
1
  0
VERTEX
  8
0
 10
537.076725
 20
1776.411106
 42
0.000000
  0
VERTEX
  8
0
 10
534.000000
 20
1773.822213
 42
0.000000
  0
VERTEX
  8
0
 10
534.000000
 20
1669.000000
 42
0.000000
  0
VERTEX
  8
0
 10
534.000000
 20
1564.177787
 42
0.000000
  0
VERTEX
  8
0
 10
537.076725
 20
1561.588894
 42
0.000000
  0
VERTEX
  8
0
 10
540.153451
 20
1559.000000
 42
0.000000
  0
VERTEX
  8
0
 10
665.642467
 20
1559.000000
 42
0.000491
  0
VERTEX
  8
0
 10
723.678676
 20
1559.056949
 42
0.001628
  0
VERTEX
  8
0
 10
761.857848
 20
1559.256175
 42
0.000366
  0
VERTEX
  8
0
 10
790.977945
 20
1559.524230
 42
0.120950
  0
VERTEX
  8
0
 10
793.150400
 20
1560.080491
 42
0.228501
  0
VERTEX
  8
0
 10
796.214953
 20
1564.282620
 42
0.034095
  0
VERTEX
  8
0
 10
797.424894
 20
1574.976922
 42
0.010620
  0
VERTEX
  8
0
 10
797.926914
 20
1596.559234
 42
0.000504
  0
VERTEX
  8
0
 10
798.000000
 20
1669.000000
 42
0.000504
  0
VERTEX
  8
0
 10
797.926914
 20
1741.440766
 42
0.010620
  0
VERTEX
  8
0
 10
797.424894
 20
1763.023078
 42
0.034095
  0
VERTEX
  8
0
 10
796.214953
 20
1773.717380
 42
0.228501
  0
VERTEX
  8
0
 10
793.150400
 20
1777.919509
 42
0.120950
  0
VERTEX
  8
0
 10
790.977945
 20
1778.475770
 42
0.000366
  0
VERTEX
  8
0
 10
761.857848
 20
1778.743825
 42
0.001628
  0
VERTEX
  8
0
 10
723.678676
 20
1778.943051
 42
0.000491
  0
VERTEX
  8
0
 10
665.642467
 20
1779.000000
 42
0.000000
  0
VERTEX
  8
0
 10
540.153451
 20
1779.000000
 42
0.000000
  0
SEQEND
  0
POLYLINE
  8
0
 66
1
 70
1
  0
VERTEX
  8
0
 10
872.110071
 20
1777.604493
 42
0.119909
  0
VERTEX
  8
0
 10
869.314282
 20
1775.027053
 42
0.103657
  0
VERTEX
  8
0
 10
867.827691
 20
1771.313289
 42
0.039184
  0
VERTEX
  8
0
 10
867.187007
 20
1764.649833
 42
0.003992
  0
VERTEX
  8
0
 10
867.035435
 20
1748.765777
 42
0.000000
  0
VERTEX
  8
0
 10
867.000000
 20
1726.031553
 42
0.000000
  0
VERTEX
  8
0
 10
869.917786
 20
1722.765777
 42
0.000000
  0
VERTEX
  8
0
 10
872.835573
 20
1719.500000
 42
0.000000
  0
VERTEX
  8
0
 10
969.167786
 20
1719.233786
 42
0.000600
  0
VERTEX
  8
0
 10
1015.751855
 20
1719.160928
 42
0.002330
  0
VERTEX
  8
0
 10
1044.601721
 20
1719.284869
 42
0.001036
  0
VERTEX
  8
0
 10
1065.330270
 20
1719.513467
 42
0.095066
  0
VERTEX
  8
0
 10
1068.289827
 20
1720.121603
 42
0.114100
  0
VERTEX
  8
0
 10
1071.543560
 20
1722.441734
 42
0.133504
  0
VERTEX
  8
0
 10
1073.218014
 20
1725.832497
 42
0.044842
  0
VERTEX
  8
0
 10
1073.880198
 20
1732.199141
 42
0.003503
  0
VERTEX
  8
0
 10
1074.000000
 20
1749.299429
 42
0.000000
  0
VERTEX
  8
0
 10
1074.000000
 20
1773.153846
 42
0.000000
  0
VERTEX
  8
0
 10
1071.076923
 20
1776.076923
 42
0.000000
  0
VERTEX
  8
0
 10
1068.153846
 20
1779.000000
 42
0.000000
  0
VERTEX
  8
0
 10
971.326923
 20
1778.964565
 42
0.000499
  0
VERTEX
  8
0
 10
920.228592
 20
1778.894821
 42
0.002836
  0
VERTEX
  8
0
 10
893.025704
 20
1778.676227
 42
0.001665
  0
VERTEX
  8
0
 10
874.943781
 20
1778.368148
 42
0.122036
  0
SEQEND
  0
POLYLINE
  8
0
 66
1
 70
1
  0
VERTEX
  8
0
 10
1138.305764
 20
1776.586584
 42
0.000000
  0
VERTEX
  8
0
 10
1135.500000
 20
1774.173167
 42
0.000000
  0
VERTEX
  8
0
 10
1135.500000
 20
1685.500000
 42
0.000000
  0
VERTEX
  8
0
 10
1135.500000
 20
1596.826833
 42
0.000000
  0
VERTEX
  8
0
 10
1138.305764
 20
1594.413416
 42
0.000000
  0
VERTEX
  8
0
 10
1141.111527
 20
1592.000000
 42
0.000000
  0
VERTEX
  8
0
 10
1242.132687
 20
1592.000000
 42
0.000000
  0
VERTEX
  8
0
 10
1343.153846
 20
1592.000000
 42
0.000000
  0
VERTEX
  8
0
 10
1346.076923
 20
1594.923077
 42
0.000000
  0
VERTEX
  8
0
 10
1349.000000
 20
1597.846154
 42
0.000000
  0
VERTEX
  8
0
 10
1349.000000
 20
1685.500000
 42
0.000000
  0
VERTEX
  8
0
 10
1349.000000
 20
1773.153846
 42
0.000000
  0
VERTEX
  8
0
 10
1346.076923
 20
1776.076923
 42
0.000000
  0
VERTEX
  8
0
 10
1343.153846
 20
1779.000000
 42
0.000000
  0
VERTEX
  8
0
 10
1242.132687
 20
1779.000000
 42
0.000000
  0
VERTEX
  8
0
 10
1141.111527
 20
1779.000000
 42
0.000000
  0
SEQEND
  0
POLYLINE
  8
0
 66
1
 70
1
  0
VERTEX
  8
0
 10
868.654988
 20
1659.171259
 42
0.109408
  0
VERTEX
  8
0
 10
867.812489
 20
1657.691633
 42
0.044450
  0
VERTEX
  8
0
 10
867.324622
 20
1655.411932
 42
0.025040
  0
VERTEX
  8
0
 10
867.067393
 20
1651.841199
 42
0.005461
  0
VERTEX
  8
0
 10
867.000000
 20
1645.671259
 42
0.004679
  0
VERTEX
  8
0
 10
867.062974
 20
1638.941908
 42
0.031647
  0
VERTEX
  8
0
 10
867.335681
 20
1635.623227
 42
0.067245
  0
VERTEX
  8
0
 10
867.923865
 20
1633.574275
 42
0.093159
  0
VERTEX
  8
0
 10
869.000000
 20
1632.000000
 42
0.163138
  0
VERTEX
  8
0
 10
871.460703
 20
1630.774799
 42
0.024347
  0
VERTEX
  8
0
 10
877.046697
 20
1630.271484
 42
0.009632
  0
VERTEX
  8
0
 10
887.625422
 20
1630.039641
 42
0.000662
  0
VERTEX
  8
0
 10
917.545455
 20
1630.000000
 42
0.000000
  0
VERTEX
  8
0
 10
964.090909
 20
1630.000000
 42
0.000000
  0
VERTEX
  8
0
 10
966.545455
 20
1632.454545
 42
0.063878
  0
VERTEX
  8
0
 10
967.926994
 20
1634.242689
 42
0.087077
  0
VERTEX
  8
0
 10
968.636605
 20
1636.148033
 42
0.040917
  0
VERTEX
  8
0
 10
968.936291
 20
1639.104738
 42
0.004806
  0
VERTEX
  8
0
 10
969.000000
 20
1645.732039
 42
0.006982
  0
VERTEX
  8
0
 10
968.924665
 20
1651.126445
 42
0.022714
  0
VERTEX
  8
0
 10
968.662704
 20
1654.691501
 42
0.034277
  0
VERTEX
  8
0
 10
968.197013
 20
1657.148764
 42
0.089032
  0
VERTEX
  8
0
 10
967.443296
 20
1658.777494
 42
0.000000
  0
VERTEX
  8
0
 10
965.886592
 20
1661.000000
 42
0.000000
  0
VERTEX
  8
0
 10
918.098284
 20
1661.000000
 42
0.000705
  0
VERTEX
  8
0
 10
888.457945
 20
1660.958230
 42
0.008538
  0
VERTEX
  8
0
 10
877.076435
 20
1660.731775
 42
0.016987
  0
VERTEX
  8
0
 10
870.856564
 20
1660.289787
 42
0.184636
  0
SEQEND
  0
POLYLINE
  8
0
 66
1
 70
1
  0
VERTEX
  8
0
 10
995.200000
 20
1659.800000
 42
0.161707
  0
VERTEX
  8
0
 10
994.643740
 20
1658.690566
 42
0.015339
  0
VERTEX
  8
0
 10
994.295232
 20
1655.631729
 42
0.014999
  0
VERTEX
  8
0
 10
994.068361
 20
1651.336879
 42
0.005695
  0
VERTEX
  8
0
 10
994.000000
 20
1645.335184
 42
0.003314
  0
VERTEX
  8
0
 10
994.052386
 20
1637.432229
 42
0.030307
  0
VERTEX
  8
0
 10
994.305965
 20
1634.004874
 42
0.079998
  0
VERTEX
  8
0
 10
994.871065
 20
1632.139165
 42
0.157698
  0
VERTEX
  8
0
 10
995.934259
 20
1631.035184
 42
0.114186
  0
VERTEX
  8
0
 10
997.686135
 20
1630.561617
 42
0.002359
  0
VERTEX
  8
0
 10
1006.805988
 20
1630.270546
 42
0.004740
  0
VERTEX
  8
0
 10
1018.476871
 20
1630.063859
 42
0.002057
  0
VERTEX
  8
0
 10
1034.000000
 20
1630.000000
 42
0.002057
  0
VERTEX
  8
0
 10
1049.523129
 20
1630.063859
 42
0.004740
  0
VERTEX
  8
0
 10
1061.194012
 20
1630.270546
 42
0.002359
  0
VERTEX
  8
0
 10
1070.313865
 20
1630.561617
 42
0.114186
  0
VERTEX
  8
0
 10
1072.065741
 20
1631.035184
 42
0.157698
  0
VERTEX
  8
0
 10
1073.128935
 20
1632.139165
 42
0.079998
  0
VERTEX
  8
0
 10
1073.694035
 20
1634.004874
 42
0.030307
  0
VERTEX
  8
0
 10
1073.947614
 20
1637.432229
 42
0.003314
  0
VERTEX
  8
0
 10
1074.000000
 20
1645.335184
 42
0.005695
  0
VERTEX
  8
0
 10
1073.931639
 20
1651.336879
 42
0.014999
  0
VERTEX
  8
0
 10
1073.704768
 20
1655.631729
 42
0.015339
  0
VERTEX
  8
0
 10
1073.356260
 20
1658.690566
 42
0.161707
  0
VERTEX
  8
0
 10
1072.800000
 20
1659.800000
 42
0.186813
  0
VERTEX
  8
0
 10
1071.374764
 20
1660.429696
 42
0.003936
  0
VERTEX
  8
0
 10
1063.532624
 20
1660.734043
 42
0.006170
  0
VERTEX
  8
0
 10
1052.288189
 20
1660.942963
 42
0.001559
  0
VERTEX
  8
0
 10
1034.000000
 20
1661.000000
 42
0.001559
  0
VERTEX
  8
0
 10
1015.711811
 20
1660.942963
 42
0.006170
  0
VERTEX
  8
0
 10
1004.467376
 20
1660.734043
 42
0.003936
  0
VERTEX
  8
0
 10
996.625236
 20
1660.429696
 42
0.186813
  0
SEQEND
  0
POLYLINE
  8
0
 66
1
 70
1
  0
VERTEX
  8
0
 10
983.200000
 20
1588.800000
 42
0.165955
  0
VERTEX
  8
0
 10
982.632803
 20
1587.644998
 42
0.013522
  0
VERTEX
  8
0
 10
982.289735
 20
1584.243902
 42
0.013586
  0
VERTEX
  8
0
 10
982.066269
 20
1579.422547
 42
0.004786
  0
VERTEX
  8
0
 10
982.000000
 20
1572.500000
 42
0.004786
  0
VERTEX
  8
0
 10
982.066269
 20
1565.577453
 42
0.013586
  0
VERTEX
  8
0
 10
982.289735
 20
1560.756098
 42
0.013522
  0
VERTEX
  8
0
 10
982.632803
 20
1557.355002
 42
0.165955
  0
VERTEX
  8
0
 10
983.200000
 20
1556.200000
 42
0.198266
  0
VERTEX
  8
0
 10
986.189614
 20
1554.957304
 42
0.000622
  0
VERTEX
  8
0
 10
1028.000000
 20
1554.905317
 42
0.000622
  0
VERTEX
  8
0
 10
1069.810386
 20
1554.957304
 42
0.198266
  0
VERTEX
  8
0
 10
1072.800000
 20
1556.200000
 42
0.165955
  0
VERTEX
  8
0
 10
1073.367197
 20
1557.355002
 42
0.013522
  0
VERTEX
  8
0
 10
1073.710265
 20
1560.756098
 42
0.013586
  0
VERTEX
  8
0
 10
1073.933731
 20
1565.577453
 42
0.004786
  0
VERTEX
  8
0
 10
1074.000000
 20
1572.500000
 42
0.004786
  0
VERTEX
  8
0
 10
1073.933731
 20
1579.422547
 42
0.013586
  0
VERTEX
  8
0
 10
1073.710265
 20
1584.243902
 42
0.013522
  0
VERTEX
  8
0
 10
1073.367197
 20
1587.644998
 42
0.165955
  0
VERTEX
  8
0
 10
1072.800000
 20
1588.800000
 42
0.198266
  0
VERTEX
  8
0
 10
1069.810386
 20
1590.042696
 42
0.000622
  0
VERTEX
  8
0
 10
1028.000000
 20
1590.094683
 42
0.000622
  0
VERTEX
  8
0
 10
986.189614
 20
1590.042696
 42
0.198266
  0
SEQEND
  0
POLYLINE
  8
0
 66
1
 70
1
  0
VERTEX
  8
0
 10
868.654988
 20
1584.171259
 42
0.109650
  0
VERTEX
  8
0
 10
867.811859
 20
1582.688875
 42
0.044357
  0
VERTEX
  8
0
 10
867.324204
 20
1580.401539
 42
0.024941
  0
VERTEX
  8
0
 10
867.067228
 20
1576.814865
 42
0.005413
  0
VERTEX
  8
0
 10
867.000000
 20
1570.605518
 42
0.008149
  0
VERTEX
  8
0
 10
867.075566
 20
1565.969163
 42
0.010746
  0
VERTEX
  8
0
 10
867.304085
 20
1561.748073
 42
0.008368
  0
VERTEX
  8
0
 10
867.627942
 20
1558.249727
 42
0.095880
  0
VERTEX
  8
0
 10
868.035184
 20
1556.934259
 42
0.231990
  0
VERTEX
  8
0
 10
869.671450
 20
1555.757483
 42
0.029286
  0
VERTEX
  8
0
 10
874.126127
 20
1555.269921
 42
0.011770
  0
VERTEX
  8
0
 10
882.663032
 20
1555.040040
 42
0.000846
  0
VERTEX
  8
0
 10
906.335184
 20
1555.000000
 42
0.001576
  0
VERTEX
  8
0
 10
924.453669
 20
1555.057093
 42
0.006221
  0
VERTEX
  8
0
 10
935.602598
 20
1555.266101
 42
0.003993
  0
VERTEX
  8
0
 10
943.376838
 20
1555.570797
 42
0.186684
  0
VERTEX
  8
0
 10
944.800000
 20
1556.200000
 42
0.161707
  0
VERTEX
  8
0
 10
945.356260
 20
1557.309434
 42
0.015339
  0
VERTEX
  8
0
 10
945.704768
 20
1560.368271
 42
0.014999
  0
VERTEX
  8
0
 10
945.931639
 20
1564.663121
 42
0.005695
  0
VERTEX
  8
0
 10
946.000000
 20
1570.664816
 42
0.003314
  0
VERTEX
  8
0
 10
945.947614
 20
1578.567771
 42
0.030307
  0
VERTEX
  8
0
 10
945.694035
 20
1581.995126
 42
0.079998
  0
VERTEX
  8
0
 10
945.128935
 20
1583.860835
 42
0.157698
  0
VERTEX
  8
0
 10
944.065741
 20
1584.964816
 42
0.114124
  0
VERTEX
  8
0
 10
942.315822
 20
1585.438082
 42
0.002380
  0
VERTEX
  8
0
 10
933.247554
 20
1585.729328
 42
0.004765
  0
VERTEX
  8
0
 10
921.643682
 20
1585.936093
 42
0.002072
  0
VERTEX
  8
0
 10
906.220729
 20
1586.000000
 42
0.000996
  0
VERTEX
  8
0
 10
884.200772
 20
1585.956135
 42
0.011165
  0
VERTEX
  8
0
 10
875.447246
 20
1585.725747
 42
0.024783
  0
VERTEX
  8
0
 10
870.681926
 20
1585.256294
 42
0.173582
  0
SEQEND
  0
POLYLINE
  8
0
 66
1
 70
1
  0
VERTEX
  8
0
 10
1137.000000
 20
1553.000000
 42
0.155970
  0
VERTEX
  8
0
 10
1135.795160
 20
1550.662658
 42
0.029595
  0
VERTEX
  8
0
 10
1135.275316
 20
1545.837816
 42
0.011228
  0
VERTEX
  8
0
 10
1135.040921
 20
1536.719503
 42
0.000811
  0
VERTEX
  8
0
 10
1135.000000
 20
1511.500000
 42
0.000811
  0
VERTEX
  8
0
 10
1135.040921
 20
1486.280497
 42
0.011228
  0
VERTEX
  8
0
 10
1135.275316
 20
1477.162184
 42
0.029595
  0
VERTEX
  8
0
 10
1135.795160
 20
1472.337342
 42
0.155970
  0
VERTEX
  8
0
 10
1137.000000
 20
1470.000000
 42
0.161253
  0
VERTEX
  8
0
 10
1139.426934
 20
1468.780466
 42
0.025733
  0
VERTEX
  8
0
 10
1144.790028
 20
1468.272472
 42
0.010047
  0
VERTEX
  8
0
 10
1154.944832
 20
1468.039969
 42
0.000700
  0
VERTEX
  8
0
 10
1183.500000
 20
1468.000000
 42
0.000700
  0
VERTEX
  8
0
 10
1212.055168
 20
1468.039969
 42
0.010047
  0
VERTEX
  8
0
 10
1222.209972
 20
1468.272472
 42
0.025733
  0
VERTEX
  8
0
 10
1227.573066
 20
1468.780466
 42
0.161253
  0
VERTEX
  8
0
 10
1230.000000
 20
1470.000000
 42
0.155970
  0
VERTEX
  8
0
 10
1231.204840
 20
1472.337342
 42
0.029595
  0
VERTEX
  8
0
 10
1231.724684
 20
1477.162184
 42
0.011228
  0
VERTEX
  8
0
 10
1231.959079
 20
1486.280497
 42
0.000811
  0
VERTEX
  8
0
 10
1232.000000
 20
1511.500000
 42
0.000811
  0
VERTEX
  8
0
 10
1231.959079
 20
1536.719503
 42
0.011228
  0
VERTEX
  8
0
 10
1231.724684
 20
1545.837816
 42
0.029595
  0
VERTEX
  8
0
 10
1231.204840
 20
1550.662658
 42
0.155970
  0
VERTEX
  8
0
 10
1230.000000
 20
1553.000000
 42
0.161253
  0
VERTEX
  8
0
 10
1227.573066
 20
1554.219534
 42
0.025733
  0
VERTEX
  8
0
 10
1222.209972
 20
1554.727528
 42
0.010047
  0
VERTEX
  8
0
 10
1212.055168
 20
1554.960031
 42
0.000700
  0
VERTEX
  8
0
 10
1183.500000
 20
1555.000000
 42
0.000700
  0
VERTEX
  8
0
 10
1154.944832
 20
1554.960031
 42
0.010047
  0
VERTEX
  8
0
 10
1144.790028
 20
1554.727528
 42
0.025733
  0
VERTEX
  8
0
 10
1139.426934
 20
1554.219534
 42
0.161253
  0
SEQEND
  0
POLYLINE
  8
0
 66
1
 70
1
  0
VERTEX
  8
0
 10
179.588894
 20
1484.923275
 42
0.000000
  0
VERTEX
  8
0
 10
177.000000
 20
1481.846549
 42
0.000000
  0
VERTEX
  8
0
 10
177.000000
 20
1435.873615
 42
0.001501
  0
VERTEX
  8
0
 10
177.095934
 20
1403.912992
 42
0.020192
  0
VERTEX
  8
0
 10
177.638728
 20
1392.218552
 42
0.062890
  0
VERTEX
  8
0
 10
178.907471
 20
1386.334548
 42
0.220052
  0
VERTEX
  8
0
 10
181.544802
 20
1383.621181
 42
0.091419
  0
VERTEX
  8
0
 10
182.918427
 20
1383.365435
 42
0.000008
  0
VERTEX
  8
0
 10
288.833340
 20
1383.182472
 42
0.000267
  0
VERTEX
  8
0
 10
405.840514
 20
1383.044663
 42
0.000161
  0
VERTEX
  8
0
 10
544.509207
 20
1383.000000
 42
0.000000
  0
VERTEX
  8
0
 10
905.854840
 20
1383.000000
 42
0.000000
  0
VERTEX
  8
0
 10
907.927420
 20
1385.634859
 42
0.130338
  0
VERTEX
  8
0
 10
909.188352
 20
1388.557555
 42
0.026681
  0
VERTEX
  8
0
 10
909.725177
 20
1394.206950
 42
0.009705
  0
VERTEX
  8
0
 10
909.960404
 20
1404.906178
 42
0.000643
  0
VERTEX
  8
0
 10
910.000000
 20
1435.680313
 42
0.000000
  0
VERTEX
  8
0
 10
910.000000
 20
1483.090909
 42
0.000000
  0
VERTEX
  8
0
 10
907.545455
 20
1485.545455
 42
0.000000
  0
VERTEX
  8
0
 10
905.090909
 20
1488.000000
 42
0.000000
  0
VERTEX
  8
0
 10
543.634348
 20
1488.000000
 42
0.000000
  0
VERTEX
  8
0
 10
182.177787
 20
1488.000000
 42
0.000000
  0
SEQEND
  0
POLYLINE
  8
0
 66
1
 70
1
  0
VERTEX
  8
0
 10
979.512027
 20
1485.658699
 42
0.141735
  0
VERTEX
  8
0
 10
978.551182
 20
1482.535361
 42
0.001830
  0
VERTEX
  8
0
 10
978.277632
 20
1461.798443
 42
0.002589
  0
VERTEX
  8
0
 10
978.131723
 20
1428.270255
 42
0.000291
  0
VERTEX
  8
0
 10
978.238974
 20
1352.077999
 42
0.000210
  0
VERTEX
  8
0
 10
978.444790
 20
1266.650314
 42
0.003442
  0
VERTEX
  8
0
 10
978.722677
 20
1238.044647
 42
0.003880
  0
VERTEX
  8
0
 10
979.115267
 20
1221.930463
 42
0.230806
  0
VERTEX
  8
0
 10
980.441130
 20
1219.419300
 42
0.143818
  0
VERTEX
  8
0
 10
982.660030
 20
1218.620221
 42
0.007316
  0
VERTEX
  8
0
 10
990.398409
 20
1218.268991
 42
0.006592
  0
VERTEX
  8
0
 10
1002.767666
 20
1218.051985
 42
0.001090
  0
VERTEX
  8
0
 10
1026.619701
 20
1218.000000
 42
0.000934
  0
VERTEX
  8
0
 10
1051.999699
 20
1218.047417
 42
0.007639
  0
VERTEX
  8
0
 10
1063.587129
 20
1218.267761
 42
0.010542
  0
VERTEX
  8
0
 10
1070.416321
 20
1218.646308
 42
0.179115
  0
VERTEX
  8
0
 10
1072.428571
 20
1219.571429
 42
0.194180
  0
VERTEX
  8
0
 10
1073.437183
 20
1221.945024
 42
0.001620
  0
VERTEX
  8
0
 10
1073.744058
 20
1242.423279
 42
0.002659
  0
VERTEX
  8
0
 10
1073.956929
 20
1275.551854
 42
0.000277
  0
VERTEX
  8
0
 10
1074.000000
 20
1353.371429
 42
0.000397
  0
VERTEX
  8
0
 10
1073.947436
 20
1419.627203
 42
0.001852
  0
VERTEX
  8
0
 10
1073.745462
 20
1457.806919
 42
0.000416
  0
VERTEX
  8
0
 10
1073.476419
 20
1485.191275
 42
0.196145
  0
VERTEX
  8
0
 10
1072.800000
 20
1486.800000
 42
0.189208
  0
VERTEX
  8
0
 10
1071.334549
 20
1487.439378
 42
0.002899
  0
VERTEX
  8
0
 10
1061.930554
 20
1487.736748
 42
0.005191
  0
VERTEX
  8
0
 10
1048.499211
 20
1487.944023
 42
0.001262
  0
VERTEX
  8
0
 10
1026.323053
 20
1488.000000
 42
0.000000
  0
VERTEX
  8
0
 10
981.046106
 20
1488.000000
 42
0.000000
  0
SEQEND
  0
POLYLINE
  8
0
 66
1
 70
1
  0
VERTEX
  8
0
 10
179.894738
 20
1321.048584
 42
0.000000
  0
VERTEX
  8
0
 10
176.943322
 20
1318.097168
 42
0.000000
  0
VERTEX
  8
0
 10
177.221661
 20
1270.575663
 42
0.000000
  0
VERTEX
  8
0
 10
177.500000
 20
1223.054158
 42
0.000000
  0
VERTEX
  8
0
 10
179.777761
 20
1220.777079
 42
0.000000
  0
VERTEX
  8
0
 10
182.055523
 20
1218.500000
 42
0.000000
  0
VERTEX
  8
0
 10
542.946175
 20
1218.245910
 42
0.000000
  0
VERTEX
  8
0
 10
903.836828
 20
1217.991820
 42
0.000000
  0
VERTEX
  8
0
 10
906.918414
 20
1220.584804
 42
0.000000
  0
VERTEX
  8
0
 10
910.000000
 20
1223.177787
 42
0.000000
  0
VERTEX
  8
0
 10
910.000000
 20
1270.507106
 42
0.001227
  0
VERTEX
  8
0
 10
909.955178
 20
1288.766688
 42
0.001945
  0
VERTEX
  8
0
 10
909.817528
 20
1304.408952
 42
0.000423
  0
VERTEX
  8
0
 10
909.631592
 20
1318.143656
 42
0.088234
  0
VERTEX
  8
0
 10
909.378819
 20
1319.455198
 42
0.302052
  0
VERTEX
  8
0
 10
904.703852
 20
1322.776572
 42
0.004658
  0
VERTEX
  8
0
 10
870.049702
 20
1323.529324
 42
0.003002
  0
VERTEX
  8
0
 10
804.559968
 20
1323.948388
 42
0.000099
  0
VERTEX
  8
0
 10
542.972737
 20
1324.000000
 42
0.000000
  0
VERTEX
  8
0
 10
182.846154
 20
1324.000000
 42
0.000000
  0
SEQEND
  0
POLYLINE
  8
0
 66
1
 70
1
  0
VERTEX
  8
0
 10
180.913343
 20
1093.718197
 42
0.201929
  0
VERTEX
  8
0
 10
178.399792
 20
1089.302789
 42
0.021368
  0
VERTEX
  8
0
 10
177.477163
 20
1077.231991
 42
0.007982
  0
VERTEX
  8
0
 10
177.062339
 20
1053.655510
 42
0.000407
  0
VERTEX
  8
0
 10
177.000000
 20
977.142467
 42
0.000000
  0
VERTEX
  8
0
 10
177.000000
 20
866.153451
 42
0.000000
  0
VERTEX
  8
0
 10
179.588894
 20
863.076725
 42
0.000000
  0
VERTEX
  8
0
 10
182.177787
 20
860.000000
 42
0.000000
  0
VERTEX
  8
0
 10
320.634348
 20
860.000000
 42
0.000000
  0
VERTEX
  8
0
 10
459.090909
 20
860.000000
 42
0.000000
  0
VERTEX
  8
0
 10
461.545455
 20
862.454545
 42
0.000000
  0
VERTEX
  8
0
 10
464.000000
 20
864.909091
 42
0.000000
  0
VERTEX
  8
0
 10
464.000000
 20
977.500000
 42
0.000000
  0
VERTEX
  8
0
 10
464.000000
 20
1090.090909
 42
0.000000
  0
VERTEX
  8
0
 10
461.545455
 20
1092.545455
 42
0.000000
  0
VERTEX
  8
0
 10
459.090909
 20
1095.000000
 42
0.000000
  0
VERTEX
  8
0
 10
320.795455
 20
1094.968197
 42
0.000374
  0
VERTEX
  8
0
 10
250.904930
 20
1094.899842
 42
0.001802
  0
VERTEX
  8
0
 10
211.139611
 20
1094.687852
 42
0.000470
  0
VERTEX
  8
0
 10
182.912070
 20
1094.409066
 42
0.162397
  0
SEQEND
  0
POLYLINE
  8
0
 66
1
 70
1
  0
VERTEX
  8
0
 10
536.454545
 20
1092.545455
 42
0.000000
  0
VERTEX
  8
0
 10
534.000000
 20
1090.090909
 42
0.000000
  0
VERTEX
  8
0
 10
534.000000
 20
985.767961
 42
0.000411
  0
VERTEX
  8
0
 10
534.063579
 20
908.450028
 42
0.012597
  0
VERTEX
  8
0
 10
534.581313
 20
889.163769
 42
0.057136
  0
VERTEX
  8
0
 10
536.089581
 20
880.171370
 42
0.228556
  0
VERTEX
  8
0
 10
539.710173
 20
876.123375
 42
0.095825
  0
VERTEX
  8
0
 10
542.738018
 20
875.507662
 42
0.000646
  0
VERTEX
  8
0
 10
569.597152
 20
875.285936
 42
0.001815
  0
VERTEX
  8
0
 10
606.701757
 20
875.162329
 42
0.000455
  0
VERTEX
  8
0
 10
667.227400
 20
875.235557
 42
0.000000
  0
VERTEX
  8
0
 10
791.954799
 20
875.500000
 42
0.000000
  0
VERTEX
  8
0
 10
794.727400
 20
878.272727
 42
0.000000
  0
VERTEX
  8
0
 10
797.500000
 20
881.045455
 42
0.000000
  0
VERTEX
  8
0
 10
797.500000
 20
985.442163
 42
0.000000
  0
VERTEX
  8
0
 10
797.500000
 20
1089.838872
 42
0.000000
  0
VERTEX
  8
0
 10
795.075686
 20
1092.419436
 42
0.000000
  0
VERTEX
  8
0
 10
792.651372
 20
1095.000000
 42
0.000000
  0
VERTEX
  8
0
 10
665.780231
 20
1095.000000
 42
0.000000
  0
VERTEX
  8
0
 10
538.909091
 20
1095.000000
 42
0.000000
  0
SEQEND
  0
POLYLINE
  8
0
 66
1
 70
1
  0
VERTEX
  8
0
 10
870.305764
 20
1092.588334
 42
0.000000
  0
VERTEX
  8
0
 10
867.500000
 20
1090.176668
 42
0.000000
  0
VERTEX
  8
0
 10
867.195623
 20
1067.426717
 42
0.003138
  0
VERTEX
  8
0
 10
867.120159
 20
1056.801920
 42
0.008864
  0
VERTEX
  8
0
 10
867.245580
 20
1049.381665
 42
0.009760
  0
VERTEX
  8
0
 10
867.530369
 20
1044.127253
 42
0.079928
  0
VERTEX
  8
0
 10
868.083441
 20
1041.798556
 42
0.220919
  0
VERTEX
  8
0
 10
872.055430
 20
1038.148075
 42
0.063116
  0
VERTEX
  8
0
 10
880.497710
 20
1036.591530
 42
0.013618
  0
VERTEX
  8
0
 10
898.633148
 20
1036.064935
 42
0.000448
  0
VERTEX
  8
0
 10
971.035415
 20
1036.000000
 42
0.000000
  0
VERTEX
  8
0
 10
1068.625818
 20
1036.000000
 42
0.000000
  0
VERTEX
  8
0
 10
1071.312909
 20
1038.804719
 42
0.000000
  0
VERTEX
  8
0
 10
1074.000000
 20
1041.609438
 42
0.000000
  0
VERTEX
  8
0
 10
1074.000000
 20
1065.668355
 42
0.000000
  0
VERTEX
  8
0
 10
1074.000000
 20
1089.727273
 42
0.000000
  0
VERTEX
  8
0
 10
1071.363636
 20
1092.363636
 42
0.000000
  0
VERTEX
  8
0
 10
1068.727273
 20
1095.000000
 42
0.000000
  0
VERTEX
  8
0
 10
970.919400
 20
1095.000000
 42
0.000000
  0
VERTEX
  8
0
 10
873.111527
 20
1095.000000
 42
0.000000
  0
SEQEND
  0
POLYLINE
  8
0
 66
1
 70
1
  0
VERTEX
  8
0
 10
1138.025436
 20
1093.025436
 42
0.036443
  0
VERTEX
  8
0
 10
1137.228602
 20
1092.103132
 42
0.025664
  0
VERTEX
  8
0
 10
1136.467564
 20
1090.962491
 42
0.026019
  0
VERTEX
  8
0
 10
1135.849372
 20
1089.789504
 42
0.048372
  0
VERTEX
  8
0
 10
1135.494832
 20
1088.775436
 42
0.059053
  0
VERTEX
  8
0
 10
1135.270730
 20
1086.943105
 42
0.000159
  0
VERTEX
  8
0
 10
1135.184556
 20
1061.693684
 42
0.000975
  0
VERTEX
  8
0
 10
1135.151909
 20
1033.187279
 42
0.000608
  0
VERTEX
  8
0
 10
1135.219396
 20
999.777530
 42
0.000000
  0
VERTEX
  8
0
 10
1135.500000
 20
913.055060
 42
0.000000
  0
VERTEX
  8
0
 10
1137.777778
 20
910.777530
 42
0.000000
  0
VERTEX
  8
0
 10
1140.055556
 20
908.500000
 42
0.000000
  0
VERTEX
  8
0
 10
1242.114361
 20
908.500000
 42
0.000000
  0
VERTEX
  8
0
 10
1344.173167
 20
908.500000
 42
0.000000
  0
VERTEX
  8
0
 10
1346.602492
 20
911.324258
 42
0.000000
  0
VERTEX
  8
0
 10
1349.031816
 20
914.148516
 42
0.000000
  0
VERTEX
  8
0
 10
1348.765908
 20
1002.662808
 42
0.000000
  0
VERTEX
  8
0
 10
1348.500000
 20
1091.177100
 42
0.000000
  0
VERTEX
  8
0
 10
1346.139216
 20
1093.088550
 42
0.160164
  0
VERTEX
  8
0
 10
1342.852129
 20
1094.337009
 42
0.006754
  0
VERTEX
  8
0
 10
1330.215210
 20
1094.739517
 42
0.004296
  0
VERTEX
  8
0
 10
1307.344607
 20
1094.962332
 42
0.000288
  0
VERTEX
  8
0
 10
1241.889216
 20
1095.000000
 42
0.000272
  0
VERTEX
  8
0
 10
1175.374414
 20
1094.963754
 42
0.004480
  0
VERTEX
  8
0
 10
1153.140528
 20
1094.740310
 42
0.007214
  0
VERTEX
  8
0
 10
1140.981496
 20
1094.333605
 42
0.186502
  0
SEQEND
  0
POLYLINE
  8
0
 66
1
 70
1
  0
VERTEX
  8
0
 10
871.000000
 20
977.320923
 42
0.128183
  0
VERTEX
  8
0
 10
868.942031
 20
975.891733
 42
0.113993
  0
VERTEX
  8
0
 10
867.732262
 20
973.578226
 42
0.054301
  0
VERTEX
  8
0
 10
867.144155
 20
969.587342
 42
0.009454
  0
VERTEX
  8
0
 10
867.000000
 20
961.963858
 42
0.004806
  0
VERTEX
  8
0
 10
867.062679
 20
955.443172
 42
0.029340
  0
VERTEX
  8
0
 10
867.324733
 20
952.085499
 42
0.060715
  0
VERTEX
  8
0
 10
867.862670
 20
950.045575
 42
0.114526
  0
VERTEX
  8
0
 10
868.828741
 20
948.654988
 42
0.165103
  0
VERTEX
  8
0
 10
871.110696
 20
947.667763
 42
0.011899
  0
VERTEX
  8
0
 10
878.079855
 20
947.268291
 42
0.007552
  0
VERTEX
  8
0
 10
890.206772
 20
947.045656
 42
0.000813
  0
VERTEX
  8
0
 10
918.272037
 20
947.000000
 42
0.000000
  0
VERTEX
  8
0
 10
965.886592
 20
947.000000
 42
0.000000
  0
VERTEX
  8
0
 10
967.443296
 20
949.222506
 42
0.088565
  0
VERTEX
  8
0
 10
968.195208
 20
950.843395
 42
0.034384
  0
VERTEX
  8
0
 10
968.661425
 20
953.281582
 42
0.022905
  0
VERTEX
  8
0
 10
968.924165
 20
956.806922
 42
0.007147
  0
VERTEX
  8
0
 10
969.000000
 20
962.111722
 42
0.006063
  0
VERTEX
  8
0
 10
968.928818
 20
967.981212
 42
0.030360
  0
VERTEX
  8
0
 10
968.649879
 20
971.256714
 42
0.055465
  0
VERTEX
  8
0
 10
968.082850
 20
973.418916
 42
0.078465
  0
VERTEX
  8
0
 10
967.088951
 20
975.139216
 42
0.000000
  0
VERTEX
  8
0
 10
965.177903
 20
977.500000
 42
0.000000
  0
VERTEX
  8
0
 10
918.838951
 20
977.685956
 42
0.001124
  0
VERTEX
  8
0
 10
900.967311
 20
977.717492
 42
0.001787
  0
VERTEX
  8
0
 10
885.671442
 20
977.655435
 42
0.000368
  0
VERTEX
  8
0
 10
872.215807
 20
977.542870
 42
0.085942
  0
SEQEND
  0
POLYLINE
  8
0
 66
1
 70
1
  0
VERTEX
  8
0
 10
996.250000
 20
976.968838
 42
0.146136
  0
VERTEX
  8
0
 10
994.967600
 20
975.947823
 42
0.114902
  0
VERTEX
  8
0
 10
994.306631
 20
974.289963
 42
0.035085
  0
VERTEX
  8
0
 10
994.045893
 20
971.055345
 42
0.002574
  0
VERTEX
  8
0
 10
994.000000
 20
962.139213
 42
0.003559
  0
VERTEX
  8
0
 10
994.054575
 20
954.472259
 42
0.023550
  0
VERTEX
  8
0
 10
994.289295
 20
950.649769
 42
0.049126
  0
VERTEX
  8
0
 10
994.739176
 20
948.503210
 42
0.228776
  0
VERTEX
  8
0
 10
995.581787
 20
947.606989
 42
0.087277
  0
VERTEX
  8
0
 10
996.846682
 20
947.360714
 42
0.000634
  0
VERTEX
  8
0
 10
1007.631775
 20
947.178303
 42
0.002386
  0
VERTEX
  8
0
 10
1020.001668
 20
947.043838
 42
0.001524
  0
VERTEX
  8
0
 10
1034.381787
 20
947.000000
 42
0.001578
  0
VERTEX
  8
0
 10
1052.476677
 20
947.057101
 42
0.006229
  0
VERTEX
  8
0
 10
1063.612327
 20
947.266121
 42
0.004001
  0
VERTEX
  8
0
 10
1071.377129
 20
947.570866
 42
0.186666
  0
VERTEX
  8
0
 10
1072.800000
 20
948.200000
 42
0.161859
  0
VERTEX
  8
0
 10
1073.356650
 20
949.311035
 42
0.015276
  0
VERTEX
  8
0
 10
1073.704971
 20
952.380961
 42
0.014949
  0
VERTEX
  8
0
 10
1073.931716
 20
956.693021
 42
0.005660
  0
VERTEX
  8
0
 10
1074.000000
 20
962.724751
 42
0.000000
  0
VERTEX
  8
0
 10
1074.000000
 20
976.049502
 42
0.000000
  0
VERTEX
  8
0
 10
1071.434900
 20
977.024751
 42
0.090308
  0
VERTEX
  8
0
 10
1066.779080
 20
977.887336
 42
0.000952
  0
VERTEX
  8
0
 10
1033.780871
 20
977.925637
 42
0.000913
  0
VERTEX
  8
0
 10
1000.704061
 20
977.840652
 42
0.094730
  0
SEQEND
  0
POLYLINE
  8
0
 66
1
 70
1
  0
VERTEX
  8
0
 10
982.676736
 20
905.343402
 42
0.200364
  0
VERTEX
  8
0
 10
981.824321
 20
903.269130
 42
0.002551
  0
VERTEX
  8
0
 10
981.979075
 20
888.786846
 42
0.002626
  0
VERTEX
  8
0
 10
982.283206
 20
874.333566
 42
0.192088
  0
VERTEX
  8
0
 10
983.200000
 20
872.200000
 42
0.198674
  0
VERTEX
  8
0
 10
986.453498
 20
870.850609
 42
0.000741
  0
VERTEX
  8
0
 10
1028.169893
 20
870.874210
 42
0.000685
  0
VERTEX
  8
0
 10
1070.011612
 20
871.017251
 42
0.221857
  0
VERTEX
  8
0
 10
1072.903538
 20
872.383771
 42
0.149600
  0
VERTEX
  8
0
 10
1073.432559
 20
873.650080
 42
0.012050
  0
VERTEX
  8
0
 10
1073.705065
 20
877.294606
 42
0.012441
  0
VERTEX
  8
0
 10
1073.836093
 20
882.401412
 42
0.004541
  0
VERTEX
  8
0
 10
1073.775983
 20
889.633771
 42
0.000000
  0
VERTEX
  8
0
 10
1073.500000
 20
905.500000
 42
0.000000
  0
VERTEX
  8
0
 10
1028.426736
 20
905.760069
 42
0.001414
  0
VERTEX
  8
0
 10
1011.097111
 20
905.811057
 42
0.002305
  0
VERTEX
  8
0
 10
996.394951
 20
905.744951
 42
0.000301
  0
VERTEX
  8
0
 10
983.330350
 20
905.618095
 42
0.196234
  0
SEQEND
  0
POLYLINE
  8
0
 66
1
 70
1
  0
VERTEX
  8
0
 10
868.035184
 20
900.065741
 42
0.096462
  0
VERTEX
  8
0
 10
867.627717
 20
898.744148
 42
0.008139
  0
VERTEX
  8
0
 10
867.304085
 20
895.176342
 42
0.010570
  0
VERTEX
  8
0
 10
867.075548
 20
890.872123
 42
0.007977
  0
VERTEX
  8
0
 10
867.000000
 20
886.137170
 42
0.005273
  0
VERTEX
  8
0
 10
867.065892
 20
879.889471
 42
0.023562
  0
VERTEX
  8
0
 10
867.315507
 20
876.235536
 42
0.040638
  0
VERTEX
  8
0
 10
867.775667
 20
873.924633
 42
0.127589
  0
VERTEX
  8
0
 10
868.571429
 20
872.571429
 42
0.174052
  0
VERTEX
  8
0
 10
870.494977
 20
871.664102
 42
0.013774
  0
VERTEX
  8
0
 10
876.214647
 20
871.271392
 42
0.009086
  0
VERTEX
  8
0
 10
885.961443
 20
871.048777
 42
0.001166
  0
VERTEX
  8
0
 10
906.871429
 20
871.000000
 42
0.001602
  0
VERTEX
  8
0
 10
924.718423
 20
871.057185
 42
0.006305
  0
VERTEX
  8
0
 10
935.714550
 20
871.266336
 42
0.004087
  0
VERTEX
  8
0
 10
943.380222
 20
871.571601
 42
0.186473
  0
VERTEX
  8
0
 10
944.800000
 20
872.200000
 42
0.161284
  0
VERTEX
  8
0
 10
945.355173
 20
873.304989
 42
0.015514
  0
VERTEX
  8
0
 10
945.704198
 20
876.333365
 42
0.015139
  0
VERTEX
  8
0
 10
945.931424
 20
880.580885
 42
0.005793
  0
VERTEX
  8
0
 10
946.000000
 20
886.500000
 42
0.005793
  0
VERTEX
  8
0
 10
945.931424
 20
892.419115
 42
0.015139
  0
VERTEX
  8
0
 10
945.704198
 20
896.666635
 42
0.015514
  0
VERTEX
  8
0
 10
945.355173
 20
899.695011
 42
0.161284
  0
VERTEX
  8
0
 10
944.800000
 20
900.800000
 42
0.186684
  0
VERTEX
  8
0
 10
943.376838
 20
901.429203
 42
0.003993
  0
VERTEX
  8
0
 10
935.602598
 20
901.733899
 42
0.006221
  0
VERTEX
  8
0
 10
924.453669
 20
901.942907
 42
0.001576
  0
VERTEX
  8
0
 10
906.335184
 20
902.000000
 42
0.000846
  0
VERTEX
  8
0
 10
882.663032
 20
901.959960
 42
0.011770
  0
VERTEX
  8
0
 10
874.126127
 20
901.730079
 42
0.029286
  0
VERTEX
  8
0
 10
869.671450
 20
901.242517
 42
0.231990
  0
SEQEND
  0
POLYLINE
  8
0
 66
1
 70
1
  0
VERTEX
  8
0
 10
1136.571429
 20
869.428571
 42
0.176390
  0
VERTEX
  8
0
 10
1135.656217
 20
867.465263
 42
0.012277
  0
VERTEX
  8
0
 10
1135.269713
 20
861.285947
 42
0.008421
  0
VERTEX
  8
0
 10
1135.048146
 20
850.772097
 42
0.001057
  0
VERTEX
  8
0
 10
1135.000000
 20
828.000000
 42
0.001057
  0
VERTEX
  8
0
 10
1135.048146
 20
805.227903
 42
0.008421
  0
VERTEX
  8
0
 10
1135.269713
 20
794.714053
 42
0.012277
  0
VERTEX
  8
0
 10
1135.656217
 20
788.534737
 42
0.176390
  0
VERTEX
  8
0
 10
1136.571429
 20
786.571429
 42
0.180007
  0
VERTEX
  8
0
 10
1138.600406
 20
785.642864
 42
0.009976
  0
VERTEX
  8
0
 10
1145.676957
 20
785.267120
 42
0.007379
  0
VERTEX
  8
0
 10
1157.670159
 20
785.047178
 42
0.000895
  0
VERTEX
  8
0
 10
1184.036245
 20
785.000000
 42
0.000662
  0
VERTEX
  8
0
 10
1213.387309
 20
785.038841
 42
0.009637
  0
VERTEX
  8
0
 10
1223.756638
 20
785.266176
 42
0.021788
  0
VERTEX
  8
0
 10
1229.219562
 20
785.730337
 42
0.242352
  0
VERTEX
  8
0
 10
1230.964816
 20
786.934259
 42
0.115039
  0
VERTEX
  8
0
 10
1231.442625
 20
788.713717
 42
0.002068
  0
VERTEX
  8
0
 10
1231.731203
 20
798.621391
 42
0.004392
  0
VERTEX
  8
0
 10
1231.936799
 20
811.313071
 42
0.001853
  0
VERTEX
  8
0
 10
1232.000000
 20
828.362830
 42
0.001069
  0
VERTEX
  8
0
 10
1231.951786
 20
850.918946
 42
0.008493
  0
VERTEX
  8
0
 10
1231.730106
 20
861.343851
 42
0.012439
  0
VERTEX
  8
0
 10
1231.342905
 20
867.469654
 42
0.176138
  0
VERTEX
  8
0
 10
1230.428571
 20
869.428571
 42
0.179725
  0
VERTEX
  8
0
 10
1228.404912
 20
870.356038
 42
0.010155
  0
VERTEX
  8
0
 10
1221.408557
 20
870.732677
 42
0.007461
  0
VERTEX
  8
0
 10
1209.546752
 20
870.952747
 42
0.000907
  0
VERTEX
  8
0
 10
1183.500000
 20
871.000000
 42
0.000907
  0
VERTEX
  8
0
 10
1157.453248
 20
870.952747
 42
0.007461
  0
VERTEX
  8
0
 10
1145.591443
 20
870.732677
 42
0.010155
  0
VERTEX
  8
0
 10
1138.595088
 20
870.356038
 42
0.179725
  0
SEQEND
  0
POLYLINE
  8
0
 66
1
 70
1
  0
VERTEX
  8
0
 10
182.019708
 20
803.717821
 42
0.175263
  0
VERTEX
  8
0
 10
179.090243
 20
800.602430
 42
0.078330
  0
VERTEX
  8
0
 10
177.671009
 20
795.074400
 42
0.022296
  0
VERTEX
  8
0
 10
177.115230
 20
784.051934
 42
0.001369
  0
VERTEX
  8
0
 10
177.014742
 20
751.173077
 42
0.000000
  0
VERTEX
  8
0
 10
177.000000
 20
704.846154
 42
0.000000
  0
VERTEX
  8
0
 10
179.923077
 20
701.923077
 42
0.000000
  0
VERTEX
  8
0
 10
182.846154
 20
699.000000
 42
0.000000
  0
VERTEX
  8
0
 10
543.968531
 20
699.000000
 42
0.000000
  0
VERTEX
  8
0
 10
905.090909
 20
699.000000
 42
0.000000
  0
VERTEX
  8
0
 10
907.545455
 20
701.454545
 42
0.000000
  0
VERTEX
  8
0
 10
910.000000
 20
703.909091
 42
0.000000
  0
VERTEX
  8
0
 10
910.000000
 20
751.780231
 42
0.000000
  0
VERTEX
  8
0
 10
910.000000
 20
799.651372
 42
0.000000
  0
VERTEX
  8
0
 10
907.419454
 20
802.075686
 42
0.000000
  0
VERTEX
  8
0
 10
904.838907
 20
804.500000
 42
0.000000
  0
VERTEX
  8
0
 10
544.669454
 20
804.737529
 42
0.000134
  0
VERTEX
  8
0
 10
357.287518
 20
804.811073
 42
0.000734
  0
VERTEX
  8
0
 10
256.223918
 20
804.675327
 42
0.000118
  0
VERTEX
  8
0
 10
185.097200
 20
804.458596
 42
0.116995
  0
SEQEND
  0
POLYLINE
  8
0
 66
1
 70
1
  0
VERTEX
  8
0
 10
980.441130
 20
803.580700
 42
0.230806
  0
VERTEX
  8
0
 10
979.115267
 20
801.069537
 42
0.003880
  0
VERTEX
  8
0
 10
978.722677
 20
784.955353
 42
0.003442
  0
VERTEX
  8
0
 10
978.444790
 20
756.349686
 42
0.000210
  0
VERTEX
  8
0
 10
978.238974
 20
670.922001
 42
0.000291
  0
VERTEX
  8
0
 10
978.131723
 20
594.729745
 42
0.002589
  0
VERTEX
  8
0
 10
978.277632
 20
561.201557
 42
0.001830
  0
VERTEX
  8
0
 10
978.551182
 20
540.464639
 42
0.141735
  0
VERTEX
  8
0
 10
979.512027
 20
537.341301
 42
0.000000
  0
VERTEX
  8
0
 10
981.046106
 20
535.000000
 42
0.000000
  0
VERTEX
  8
0
 10
1026.323053
 20
535.000000
 42
0.001262
  0
VERTEX
  8
0
 10
1048.499211
 20
535.055977
 42
0.005191
  0
VERTEX
  8
0
 10
1061.930554
 20
535.263252
 42
0.002899
  0
VERTEX
  8
0
 10
1071.334549
 20
535.560622
 42
0.189208
  0
VERTEX
  8
0
 10
1072.800000
 20
536.200000
 42
0.196145
  0
VERTEX
  8
0
 10
1073.476419
 20
537.808725
 42
0.000416
  0
VERTEX
  8
0
 10
1073.745462
 20
565.193081
 42
0.001852
  0
VERTEX
  8
0
 10
1073.947436
 20
603.372797
 42
0.000397
  0
VERTEX
  8
0
 10
1074.000000
 20
669.628571
 42
0.000277
  0
VERTEX
  8
0
 10
1073.956929
 20
747.448146
 42
0.002659
  0
VERTEX
  8
0
 10
1073.744058
 20
780.576721
 42
0.001620
  0
VERTEX
  8
0
 10
1073.437183
 20
801.054976
 42
0.194180
  0
VERTEX
  8
0
 10
1072.428571
 20
803.428571
 42
0.179115
  0
VERTEX
  8
0
 10
1070.416321
 20
804.353692
 42
0.010542
  0
VERTEX
  8
0
 10
1063.587129
 20
804.732239
 42
0.007639
  0
VERTEX
  8
0
 10
1051.999699
 20
804.952583
 42
0.000934
  0
VERTEX
  8
0
 10
1026.619701
 20
805.000000
 42
0.001090
  0
VERTEX
  8
0
 10
1002.767666
 20
804.948015
 42
0.006592
  0
VERTEX
  8
0
 10
990.398409
 20
804.731009
 42
0.007316
  0
VERTEX
  8
0
 10
982.660030
 20
804.379779
 42
0.143818
  0
SEQEND
  0
POLYLINE
  8
0
 66
1
 70
1
  0
VERTEX
  8
0
 10
181.228960
 20
639.330706
 42
0.098826
  0
VERTEX
  8
0
 10
180.641536
 20
638.946230
 42
0.027510
  0
VERTEX
  8
0
 10
179.896844
 20
638.129407
 42
0.026628
  0
VERTEX
  8
0
 10
179.138585
 20
637.091597
 42
0.025130
  0
VERTEX
  8
0
 10
178.478960
 20
635.959313
 42
0.103010
  0
VERTEX
  8
0
 10
177.653743
 20
633.000082
 42
0.009039
  0
VERTEX
  8
0
 10
177.273780
 20
625.184583
 42
0.006574
  0
VERTEX
  8
0
 10
177.052423
 20
612.428653
 42
0.001051
  0
VERTEX
  8
0
 10
177.000000
 20
587.483918
 42
0.001291
  0
VERTEX
  8
0
 10
177.079634
 20
556.632785
 42
0.017782
  0
VERTEX
  8
0
 10
177.534773
 20
545.462159
 42
0.053577
  0
VERTEX
  8
0
 10
178.619530
 20
539.611740
 42
0.157695
  0
VERTEX
  8
0
 10
180.913343
 20
536.281803
 42
0.164213
  0
VERTEX
  8
0
 10
182.983031
 20
535.574593
 42
0.000074
  0
VERTEX
  8
0
 10
256.908055
 20
535.309020
 42
0.000701
  0
VERTEX
  8
0
 10
359.667432
 20
535.099036
 42
0.000139
  0
VERTEX
  8
0
 10
543.795455
 20
535.031803
 42
0.000000
  0
VERTEX
  8
0
 10
905.090909
 20
535.000000
 42
0.000000
  0
VERTEX
  8
0
 10
907.545455
 20
537.454545
 42
0.000000
  0
VERTEX
  8
0
 10
910.000000
 20
539.909091
 42
0.000000
  0
VERTEX
  8
0
 10
910.000000
 20
587.500000
 42
0.000000
  0
VERTEX
  8
0
 10
910.000000
 20
635.090909
 42
0.000000
  0
VERTEX
  8
0
 10
907.545455
 20
637.545455
 42
0.000000
  0
VERTEX
  8
0
 10
905.090909
 20
640.000000
 42
0.000000
  0
VERTEX
  8
0
 10
543.795455
 20
639.921053
 42
0.000133
  0
VERTEX
  8
0
 10
405.169733
 20
639.854016
 42
0.000220
  0
VERTEX
  8
0
 10
288.257172
 20
639.715073
 42
0.000005
  0
VERTEX
  8
0
 10
182.312603
 20
639.541460
 42
0.095509
  0
SEQEND
  0
ENDSEC
  0
EOF
