<svg id="Cutting_Stickers" data-name="Cutting Stickers" xmlns="http://www.w3.org/2000/svg" viewBox="0 0 595.28 841.89"><g id="Logo"><rect x="170.8" y="56.84" width="84.49" height="70.44" rx="2.95"/></g><g id="Name"><rect x="56.69" y="149.88" width="234.67" height="33.85" rx="2.81"/></g><g id="Name-2" data-name="Name"><rect x="56.69" y="202.45" width="234.67" height="33.85" rx="2.81"/></g><g id="Logo-2" data-name="Logo"><rect x="56.69" y="56.84" width="91.88" height="75.47" rx="2.88"/></g><g id="Barcode"><rect x="277.51" y="56.84" width="66.35" height="19.17" rx="3.19"/></g><g id="Power_In" data-name="Power In"><rect x="277.51" y="94.58" width="32.5" height="9.86" rx="1.78"/></g><rect x="277.51" y="118.68" width="25.34" height="9.98" rx="1.52"/><g id="USB"><rect x="317.98" y="94.58" width="25.87" height="9.86" rx="1.41"/></g><g id="On_Off" data-name="On / Off"><rect x="314.17" y="117.31" width="29.68" height="11.34" rx="1.48"/></g><g id="Hot_Surfaces" data-name="Hot Surfaces"><rect x="363.36" y="128.65" width="30.84" height="27.58" rx="1.42"/></g><g id="Inscriptionsa"><rect x="363.36" y="56.84" width="68.32" height="59.88" rx="2.65"/></g><rect x="313.15" y="149.88" width="30.7" height="86.41" rx="1.62"/><g id="Logo-3" data-name="Logo"><rect x="170.8" y="272.61" width="84.49" height="70.44" rx="2.95"/></g><g id="Name-3" data-name="Name"><rect x="56.69" y="365.65" width="234.67" height="33.85" rx="2.81"/></g><g id="Name-4" data-name="Name"><rect x="56.69" y="418.22" width="234.67" height="33.85" rx="2.81"/></g><g id="Logo-4" data-name="Logo"><rect x="56.69" y="272.61" width="91.88" height="75.47" rx="2.88"/></g><g id="Barcode-2" data-name="Barcode"><rect x="277.51" y="272.61" width="66.35" height="19.17" rx="3.19"/></g><g id="Power_In-2" data-name="Power In"><rect x="277.51" y="310.35" width="32.5" height="9.86" rx="1.78"/></g><rect x="277.51" y="334.45" width="25.34" height="9.98" rx="1.52"/><g id="USB-2" data-name="USB"><rect x="317.98" y="310.35" width="25.87" height="9.86" rx="1.41"/></g><g id="On_Off-2" data-name="On / Off"><rect x="314.17" y="333.08" width="29.68" height="11.34" rx="1.48"/></g><g id="Hot_Surfaces-2" data-name="Hot Surfaces"><rect x="363.36" y="344.42" width="30.84" height="27.58" rx="1.42"/></g><g id="Inscriptionsa-2" data-name="Inscriptionsa"><rect x="363.36" y="272.61" width="68.32" height="59.88" rx="2.65"/></g><rect x="313.15" y="365.65" width="30.7" height="86.41" rx="1.62"/><g id="Logo-5" data-name="Logo"><rect x="170.8" y="491.35" width="84.49" height="70.44" rx="2.95"/></g><g id="Name-5" data-name="Name"><rect x="56.69" y="584.39" width="234.67" height="33.85" rx="2.81"/></g><g id="Name-6" data-name="Name"><rect x="56.69" y="636.96" width="234.67" height="33.85" rx="2.81"/></g><g id="Logo-6" data-name="Logo"><rect x="56.69" y="491.35" width="91.88" height="75.47" rx="2.88"/></g><g id="Barcode-3" data-name="Barcode"><rect x="277.51" y="491.35" width="66.35" height="19.17" rx="3.19"/></g><g id="Power_In-3" data-name="Power In"><rect x="277.51" y="529.09" width="32.5" height="9.86" rx="1.78"/></g><rect x="277.51" y="553.19" width="25.34" height="9.98" rx="1.52"/><g id="USB-3" data-name="USB"><rect x="317.98" y="529.09" width="25.87" height="9.86" rx="1.41"/></g><g id="On_Off-3" data-name="On / Off"><rect x="314.17" y="551.82" width="29.68" height="11.34" rx="1.48"/></g><g id="Hot_Surfaces-3" data-name="Hot Surfaces"><rect x="363.36" y="563.17" width="30.84" height="27.58" rx="1.42"/></g><g id="Inscriptionsa-3" data-name="Inscriptionsa"><rect x="363.36" y="491.35" width="68.32" height="59.88" rx="2.65"/></g><rect x="313.15" y="584.39" width="30.7" height="86.41" rx="1.62"/></svg>